<svg width="94" height="62" viewBox="0 0 94 62" fill="none" xmlns="http://www.w3.org/2000/svg">
<path style="mix-blend-mode:overlay" opacity="0.4" d="M60.5785 16.1482C54.6114 17.6716 46.4676 14.2242 41.2909 14.5244C35.5865 14.8556 36.2726 18.3895 33.6856 18.2575C27.5395 17.9441 19.0576 10.9219 9.37174 10.4343C5.34225 10.2311 2.69512 10.7669 -0.000106812 13.4582V61.8108H26.8627C28.6205 58.2828 26.0629 54.644 28.2658 52.788C32.8578 48.9183 35.5103 50.4029 48.9818 48.6564C62.4526 46.9099 69.5829 27.8055 73.3818 21.3975L60.5785 16.1482Z" fill="url(#paint0_linear_552_23592)"/>
<path d="M72.6724 20.0747C72.6858 20.0938 72.6978 20.1143 72.7105 20.1334C73.869 21.9301 75.2106 23.7161 76.7827 25.1829C77.4662 25.8209 80.8831 27.31 81.7964 27.7013C82.82 28.1394 85.0114 28.9543 86.0644 29.3171L87.543 26.1943C86.4452 25.1848 83.587 22.8313 82.3897 21.9393C81.9334 21.5988 81.3307 21.3052 80.9813 20.8585C80.6372 20.4191 80.3372 19.9309 80.0178 19.4736C79.3357 18.4945 78.6428 17.4797 77.8818 16.5303L72.6724 20.0747Z" fill="#FF8E6E"/>
<path d="M85.7628 29.076C85.7628 29.076 85.5389 28.2611 85.8563 27.602C86.3247 26.6288 87.5433 26.1953 87.5433 26.1953L90.3849 27.0425C90.6127 27.1184 90.6608 27.1487 90.7577 27.1725C91.9269 27.4654 93.1616 28.213 93.8364 28.7085C94.097 28.9011 94.0429 29.2667 93.6981 29.4745C93.4302 29.6355 93.0741 29.6243 92.8596 29.4686C92.4741 29.1835 91.9516 28.8629 91.3109 28.564C93.012 29.6216 93.7409 30.8053 93.7803 30.8759C93.9193 31.1082 93.7676 31.4176 93.4429 31.5621C93.1149 31.7066 92.7387 31.6347 92.5957 31.4018C92.589 31.3859 91.9864 30.4154 90.61 29.5055C92.0499 30.7651 92.5316 32.0438 92.559 32.117C92.6492 32.3704 92.4441 32.6626 92.0986 32.7755C91.7545 32.885 91.4038 32.7689 91.3142 32.5149C91.3089 32.4957 90.9067 31.442 89.7355 30.36C90.3067 31.0633 90.6635 31.7561 90.8766 32.3176C90.9829 32.594 90.727 32.9252 90.3221 33.0057C90.0047 33.0678 89.7174 32.9345 89.6299 32.7095C89.356 31.9982 88.8328 31.0587 87.87 30.1864C87.87 30.1864 86.9193 30.1046 86.4082 29.813C85.9017 29.5246 85.7614 29.074 85.7614 29.074L85.7628 29.076Z" fill="#FF8E6E"/>
<path d="M50.328 12.3785L51.709 9.34275L49.1694 7.79487C48.961 7.67083 48.9055 7.65235 48.8233 7.59561C47.8345 6.90546 46.4247 6.42249 45.5816 6.2074C45.2555 6.12492 44.9843 6.37037 45.0304 6.73853C45.0664 7.02489 45.303 7.27891 45.5689 7.34819C46.0526 7.47025 46.6519 7.67149 47.3094 7.97236C45.3437 7.32246 43.8925 7.45507 43.8077 7.46629C43.5251 7.49532 43.3641 7.7797 43.4496 8.09838C43.5378 8.4197 43.8371 8.65393 44.123 8.62819C44.1404 8.62424 45.3337 8.51933 46.9693 9.01418C45.0016 8.6691 43.628 9.03595 43.5498 9.05706C43.2812 9.1336 43.1676 9.44766 43.2932 9.76371C43.4215 10.0771 43.7409 10.2678 44.0101 10.1913C44.0295 10.1847 45.1647 9.88643 46.8129 10.1345C45.8629 10.1121 45.0571 10.2401 44.4524 10.4004C44.1544 10.4783 44.0409 10.8517 44.2313 11.1928C44.3816 11.46 44.6756 11.5953 44.9195 11.532C45.6878 11.3327 46.8049 11.1869 48.1452 11.4013C48.1452 11.4013 48.5561 11.8652 49.2737 12.3145C49.72 12.5942 50.3286 12.3785 50.3286 12.3785H50.328Z" fill="#FF8E6E"/>
<path d="M59.3754 16.1534C60.5432 16.1772 61.7138 16.1382 62.8777 16.0485L66.8838 10.2845C65.5408 10.1301 63.5084 10.1631 61.663 10.266C60.7798 10.5557 59.9626 11.2175 59.3981 12.2903C58.6284 13.7498 58.8115 15.6493 59.3754 16.1541V16.1534Z" fill="#F72585"/>
<path d="M50.3293 12.3792C51.9555 13.5424 56.4834 15.6907 56.4834 15.6907C57.2344 16.0826 58.1357 16.1136 58.9621 16.1413C59.1005 16.1459 59.2381 16.1492 59.3764 16.1525C58.8125 15.6478 58.6288 13.7489 59.3991 12.2888C59.9637 11.2159 60.7808 10.5548 61.6641 10.2645C60.5416 10.3265 59.4886 10.4143 58.7029 10.5014C58.3876 10.5357 57.7435 10.597 57.7435 10.597C57.7435 10.597 53.9659 9.58822 51.7096 9.34277L50.3293 12.3778V12.3792Z" fill="#FF8E6E"/>
<path d="M69.7066 11.3872L71.9488 8.4043L74.8472 10.2643L72.8014 13.3726L69.7066 11.3872Z" fill="#FF8E6E"/>
<path d="M70.8669 7.5236L70.9985 5.43732C71.1334 3.34114 72.9775 1.7352 75.1001 1.86913C76.3722 1.94963 77.464 2.63714 78.108 3.62617C78.4802 4.19888 78.7013 4.87517 78.7174 5.59171C78.7194 5.70058 78.7194 5.80944 78.7134 5.92029L78.6285 7.22933C78.676 7.389 78.8877 8.03032 79.2993 8.38529L78.5316 8.72179L78.4541 9.91272C78.3546 11.485 77.2415 12.7604 75.668 12.5176C73.057 12.1138 70.6985 10.143 70.8662 7.52558L70.8669 7.5236Z" fill="#FF8E6E"/>
<path d="M71.3928 2.86642C72.4431 1.76192 73.7306 1.43005 74.8791 1.49339C75.6521 1.53627 76.5741 1.74081 77.2363 2.01594L77.1895 0.00488281C77.1895 0.00488281 78.2144 1.04604 78.5131 2.25875L79.7564 0.92728C79.7564 0.92728 80.0725 3.37975 78.2752 3.90297C77.4414 3.76969 76.3436 3.96829 76.3436 3.96829C76.3436 3.96829 76.6122 5.79658 76.0022 6.33234C75.6368 6.65366 75.0862 6.78562 75.0862 6.78562C75.0862 6.78562 75.2078 8.91874 72.9609 10.4581L72.6235 9.94671L72.0135 10.5834L71.7803 9.97244L71.5852 10.3281C71.1683 9.74943 70.881 8.80262 70.7253 7.79247C70.4521 6.02355 70.3866 3.92474 71.3935 2.86576L71.3928 2.86642Z" fill="#6B1829"/>
<path d="M78.6381 4.58105L77.3988 4.59689C77.0092 4.60217 76.6979 4.97957 76.7046 5.44011L76.7226 6.81183C76.7286 7.27237 77.0493 7.64186 77.4388 7.63658L78.6782 7.62074L78.6381 4.58105Z" fill="white"/>
<path d="M77.6319 5.42834L77.65 6.80006C77.656 7.2606 77.9767 7.63009 78.3662 7.62481L78.9922 7.61689C79.3818 7.61161 79.6931 7.23421 79.6864 6.77367L79.6684 5.40195C79.6624 4.94141 79.3417 4.57193 78.9521 4.5772L78.3261 4.58512C77.9366 4.5904 77.6252 4.9678 77.6319 5.42834Z" fill="#3A0CA3"/>
<path d="M77.0557 6.38046L77.0441 5.47852" stroke="#B88CFF" stroke-width="2.74" stroke-linecap="round" stroke-linejoin="round"/>
<path d="M70.5121 5.80009C70.9665 5.93337 71.4088 6.0429 71.835 6.13197C74.8236 6.75482 76.9516 6.40183 77.0571 6.38269L77.0451 5.48075C77.017 5.48603 74.0198 5.98286 70.5522 4.94434L70.5121 5.80009Z" fill="#3A0CA3"/>
<path d="M76.0317 6.49704L75.8934 8.0667C75.8714 8.11684 75.848 8.16435 75.8219 8.20856C75.5206 8.7232 75.0776 8.60443 74.8331 7.94266C74.5879 7.28154 74.6333 6.32747 74.9347 5.81349C75.236 5.29819 75.679 5.41761 75.9235 6.07807C75.9542 6.15989 76.0104 6.40797 76.0317 6.4977V6.49704Z" fill="#FF8E6E"/>
<path d="M77.1859 8.85781C77.2226 9.27546 77.4972 9.66408 77.8961 9.81781C77.9322 9.82903 78.0251 9.86004 78.0598 9.8706L78.1159 9.88115C78.2242 9.90688 78.3464 9.9115 78.4567 9.91678C78.466 9.91744 78.47 9.90425 78.462 9.89963C78.3878 9.8541 78.3137 9.82837 78.2449 9.79604C77.9395 9.6588 77.6629 9.48725 77.4558 9.21806C77.371 9.11117 77.2914 8.98977 77.2033 8.85187C77.1986 8.84395 77.1845 8.84791 77.1859 8.85781Z" fill="#CE6042"/>
<path d="M71.5177 18.1968C71.692 18.9431 71.9867 19.3112 72.3842 19.9149C72.4464 20.0106 72.5085 20.1043 72.5693 20.198C72.9755 20.8274 72.9769 20.8558 73.3804 21.4021C73.514 21.5928 73.6477 21.7789 73.7819 21.9603C74.0465 20.8756 74.549 19.9215 75.3547 19.3244C76.8821 18.1942 78.2718 18.053 79.1831 18.2127C78.1655 16.7519 76.8153 15.0087 75.1175 13.79C74.1147 13.8587 73.059 14.4479 72.4083 15.2277C71.7027 16.0743 71.2658 17.1247 71.5177 18.1968Z" fill="#F72585"/>
<path d="M59.0139 18.2632C59.0139 18.2632 66.813 20.0625 68.7712 23.7923C69.0271 24.2793 69.2129 24.7081 69.3438 25.0849C69.3438 25.0849 71.9001 23.027 73.382 21.4032C72.9785 20.8569 72.9771 20.8285 72.5709 20.1991C72.5108 20.1061 72.448 20.0117 72.3858 19.916C71.9883 19.3123 71.6936 18.9442 71.5193 18.1979C71.2674 17.1258 71.7043 16.076 72.4099 15.2288C73.0606 14.449 74.1163 13.8591 75.1191 13.7911C74.8045 13.5655 74.4777 13.3577 74.1397 13.1729C73.0352 12.488 70.165 10.8425 67.3314 10.3404C65.1126 9.9465 63.936 11.2344 62.7594 13.2151L59.0139 18.2632Z" fill="white"/>
<path d="M24.4293 22.6709C25.1128 20.8756 26.5158 19.7354 27.504 20.1016L45.8842 26.1988L55.1438 20.5985C55.1438 20.5985 55.9663 19.62 56.4607 19.2973C57.0259 18.9292 59.0143 18.2568 59.0143 18.2568C59.0143 18.2568 62.4812 18.6507 66.3691 21.0808C69.0696 22.7685 69.3442 25.0785 69.3442 25.0785L54.4784 36.8539L54.3948 36.9205C53.9993 37.2267 53.531 37.4536 53.0078 37.5711L32.3927 42.1705C32.37 42.1771 32.3473 42.1798 32.3239 42.1844C31.3451 42.3836 30.2333 41.0245 29.8418 39.1487C29.4589 37.3151 29.9046 35.6643 30.8393 35.4043L43.2438 32.6431L24.929 26.5676C23.9409 26.2008 23.7444 24.4668 24.4279 22.6715L24.4293 22.6709Z" fill="#895BFD"/>
<path d="M43.2459 32.6405L50.592 30.9963L59.0044 23.4436L57.7958 22.7119C57.7958 22.7119 57.7924 23.2543 58.0396 23.9774L43.2466 32.6405H43.2459Z" fill="#6830F2"/>
<path d="M25.7282 44.1155C26.5975 43.8746 27.0004 43.7222 27.5155 43.5626C28.9159 43.1271 31.3485 42.2628 32.8732 41.186C33.391 40.8198 34.4847 37.7115 33.7204 36.6109C33.1365 35.769 31.5811 35.0261 30.4426 34.6533C30.949 34.8565 32.008 35.3191 32.2084 35.7044C32.6066 36.4684 31.9258 38.3244 31.4895 39.0687C30.5708 40.6377 27.0992 43.0697 25.7282 44.1155Z" fill="#F72585"/>
<path d="M22.1615 44.6784C22.4462 44.9106 23.3682 45.1376 24.2795 44.7437C24.6369 44.5893 25.1962 44.3452 25.7273 44.1122C27.0983 43.0665 30.5693 40.6345 31.4886 39.0655C31.9249 38.3212 32.6051 36.4652 32.2075 35.7011C32.0071 35.3152 30.9481 34.8533 30.4417 34.6501C29.8798 34.4673 29.4201 34.3736 29.229 34.4027C27.7685 34.623 22.0059 43.3812 22.0059 43.3812C21.6765 43.8147 21.8215 44.3557 22.1615 44.6784Z" fill="#B88CFF"/>
<path d="M21.9416 44.3873C21.9978 44.4955 22.0739 44.5957 22.1628 44.6802C22.4474 44.9125 23.3694 45.1394 24.2808 44.7449C24.6382 44.5905 25.1968 44.3463 25.7286 44.1141C27.0989 43.0683 30.5705 40.6363 31.4899 39.0673C31.9255 38.3231 32.607 36.4677 32.2088 35.7037C32.1573 35.604 32.0471 35.4985 31.9041 35.3936C32.2462 36.188 31.5868 37.976 31.1598 38.7038C30.2411 40.2728 26.7695 42.7048 25.3985 43.7499C24.8674 43.9828 24.3082 44.2269 23.9507 44.3813C23.1336 44.7343 22.3085 44.5885 21.9416 44.3873Z" fill="white"/>
<path d="M16.2946 27.6057C16.3114 27.6279 16.2764 27.5843 16.2946 27.6057V27.6057Z" fill="#F26419"/>
<path d="M22.3391 23.5267C21.4872 23.9331 20.4783 25.3972 18.7786 26.6429C17.0789 27.8892 16.2958 27.6009 16.2958 27.6009C16.0767 27.2901 16.1422 26.9028 16.4442 26.5294C17.0241 25.8135 17.5279 25.1517 19.0392 23.7741C19.6345 23.2324 21.0516 22.3529 21.0516 22.3529C21.0516 22.3529 23.9259 19.0004 24.427 18.9331C24.4984 18.9233 24.5786 18.9252 24.6655 18.9364C26.5229 19.5699 23.1776 23.1262 22.3384 23.526L22.3391 23.5267Z" fill="#B88CFF"/>
<path d="M27.4391 20.6497C27.4521 20.665 27.4262 20.6325 27.4391 20.6497V20.6497Z" fill="#F26419"/>
<path d="M27.4407 20.6459C27.1554 20.3154 26.8287 19.9888 26.5126 19.7856C26.2962 19.647 25.9026 19.4062 25.4937 19.2148C25.5525 19.3521 25.5826 19.5065 25.5833 19.6741C25.5859 21.1309 23.2321 23.5022 22.4972 23.8526C22.1304 24.0274 21.674 24.4853 21.1456 25.0145C20.5783 25.5832 19.8728 26.2905 18.9955 26.9338C18.1423 27.56 17.4862 27.8272 17.0212 27.9308C17.086 27.9288 17.1522 27.9202 17.2183 27.9031C18.2185 27.6398 21.0747 26.7319 21.0747 26.7319L25.2278 26.2087C25.2278 26.2087 26.2888 25.6076 26.9409 24.6608C27.283 24.1633 27.581 23.5616 27.8088 23.0364C28.1542 22.242 28.0066 21.3051 27.4407 20.6459Z" fill="#F72585"/>
<path d="M22.4972 23.8491C22.1304 24.0239 21.6741 24.4818 21.1456 25.011C20.5784 25.5797 19.8728 26.287 18.9956 26.9303C18.1424 27.5565 17.4863 27.8237 17.0212 27.9273C16.7239 27.9345 16.454 27.788 16.2957 27.5993C16.2957 27.5993 17.0794 27.887 18.7784 26.6413C20.4781 25.395 21.487 23.9315 22.3389 23.5251C23.1774 23.1253 26.5234 19.569 24.666 18.9355C24.9125 18.9679 25.2072 19.0781 25.4945 19.212C25.5533 19.3492 25.5833 19.5036 25.584 19.6712C25.5867 21.1281 23.2328 23.4994 22.4979 23.8497L22.4972 23.8491Z" fill="white"/>
<path d="M16.2966 27.6048C16.3133 27.6269 16.2784 27.5833 16.2966 27.6048V27.6048Z" fill="url(#paint1_linear_552_23592)"/>
<path style="mix-blend-mode:overlay" opacity="0.5" d="M16.4449 26.5298C17.0248 25.8139 17.5286 25.1521 19.0399 23.7745C19.6352 23.2328 21.0523 22.3533 21.0523 22.3533C21.0523 22.3533 23.9266 19.0008 24.4277 18.9335C24.4992 18.9236 24.5794 18.9256 24.6662 18.9368C24.9128 18.9692 25.2074 19.0794 25.4947 19.2133C25.9036 19.404 26.2971 19.6448 26.5136 19.784C26.6319 19.8599 26.7508 19.9529 26.869 20.0565C27.0909 20.0163 27.3053 20.0282 27.5031 20.1014L45.8833 26.1986L55.1423 20.5982C55.1423 20.5982 55.9647 19.6197 56.4592 19.2971C57.0244 18.9289 59.0127 18.2566 59.0127 18.2566L60.5775 16.1472C60.1766 16.1532 59.7751 16.1532 59.3742 16.1452C59.2359 16.1419 59.0976 16.1386 58.96 16.134C58.1335 16.1063 57.2322 16.0753 56.4812 15.6834C56.4812 15.6834 51.9533 13.5344 50.3271 12.3719C50.3271 12.3719 49.7184 12.5876 49.2721 12.3079C48.5545 11.8585 48.1436 11.3947 48.1436 11.3947C46.8034 11.1809 45.6862 11.3261 44.9179 11.5253C44.674 11.588 44.3807 11.4528 44.2297 11.1862C44.0386 10.8451 44.1529 10.4716 44.4509 10.3938C45.0555 10.2341 45.8613 10.1055 46.8114 10.1279C45.1631 9.87981 44.0279 10.178 44.0086 10.1846C43.74 10.2612 43.4199 10.0705 43.2917 9.75708C43.1654 9.4417 43.279 9.12764 43.5482 9.05044C43.6264 9.02933 45.0001 8.66248 46.9677 9.00756C45.3321 8.51205 44.1389 8.61695 44.1215 8.62157C43.8362 8.64796 43.5369 8.41308 43.448 8.09176C43.3618 7.77307 43.5228 7.4887 43.8061 7.45967C43.8903 7.44845 45.3415 7.31649 47.3078 7.96573C46.6503 7.66487 46.051 7.46363 45.5673 7.34157C45.3014 7.27229 45.0649 7.01827 45.0288 6.73191C44.9827 6.36309 45.254 6.1183 45.58 6.20078C46.4232 6.41653 47.8329 6.89884 48.8218 7.58899C48.9039 7.64639 48.9594 7.66487 49.1679 7.78825L51.7067 9.33547C53.963 9.58092 57.7406 10.5897 57.7406 10.5897C57.7406 10.5897 58.3847 10.5284 58.7001 10.4941C59.4865 10.407 60.5394 10.3192 61.6612 10.2572C63.5066 10.1549 65.539 10.1213 66.882 10.2757C67.0263 10.2876 67.1753 10.306 67.3296 10.3331C68.2142 10.4901 69.1022 10.758 69.9393 11.0734L71.1446 9.47007C70.9569 8.97588 70.8159 8.39394 70.7224 7.78825C70.6235 7.15088 70.5527 6.47063 70.5487 5.8115C70.536 5.8082 70.5239 5.8049 70.5119 5.80094L70.552 4.94518C70.5634 4.94848 70.5754 4.95178 70.5867 4.95574C70.6716 4.11912 70.9074 3.37025 71.3912 2.86154C72.4415 1.75704 73.729 1.42516 74.8775 1.4885C75.6505 1.53139 76.5725 1.73593 77.2346 2.01106L77.1879 0C77.1879 0 78.2128 1.04116 78.5114 2.25387L79.7548 0.922397C79.7548 0.922397 80.0708 3.37486 78.2736 3.89808C78.3898 4.11582 78.4854 4.34477 78.5575 4.58361L78.641 4.58229L78.9537 4.57833C79.3432 4.57306 79.6639 4.94254 79.67 5.40308L79.688 6.7748C79.694 7.23534 79.3833 7.61274 78.9938 7.61802L78.7793 7.62066C78.8903 7.86874 79.0613 8.16961 79.2998 8.37547L78.5321 8.71196L78.4546 9.90224C78.3551 11.4745 77.242 12.7499 75.6685 12.5071C75.0037 12.4042 74.3563 12.1997 73.7617 11.9093L73.2726 12.6529C73.6221 12.8509 73.9167 13.0277 74.1385 13.1656C74.4766 13.3503 74.8033 13.5582 75.118 13.7838C76.815 15.0018 78.1653 16.7457 79.1836 18.2064C79.1649 18.2032 79.1461 18.2005 79.1268 18.1972C79.4281 18.6228 79.7241 19.0503 80.0167 19.4713C80.3361 19.9285 80.6361 20.4168 80.9802 20.8562C81.3296 21.3022 81.9322 21.5965 82.3886 21.9369C83.5865 22.829 86.4441 25.1825 87.5419 26.192L90.3834 27.0392C90.6112 27.115 90.6593 27.1454 90.7562 27.1691C91.9255 27.4621 93.1602 28.2096 93.835 28.7051C94.0955 28.8978 94.0414 29.2633 93.6967 29.4712C93.4287 29.6322 93.0726 29.6209 92.8582 29.4652C92.4727 29.1802 91.9502 28.8595 91.3094 28.5606C93.0105 29.6183 93.7394 30.802 93.7788 30.8726C93.9178 31.1048 93.7661 31.4143 93.4414 31.5588C93.1134 31.7033 92.7372 31.6313 92.5943 31.3984C92.5876 31.3826 91.9849 30.412 90.6086 29.5022C92.0484 30.7617 92.5301 32.0404 92.5575 32.1137C92.6477 32.367 92.4426 32.6593 92.0972 32.7721C91.7531 32.8817 91.4023 32.7649 91.3128 32.5115C91.3074 32.4924 90.9052 31.4387 89.734 30.3566C90.3052 31.06 90.662 31.7528 90.8752 32.3142C90.9814 32.5907 90.7255 32.9219 90.3206 33.0024C90.0032 33.0644 89.716 32.9311 89.6284 32.7062C89.3545 31.9949 88.8313 31.0553 87.8686 30.1831C87.8686 30.1831 86.9178 30.1013 86.4067 29.8096C86.094 29.6315 85.9216 29.392 85.8348 29.235C84.7197 28.8437 82.748 28.1067 81.7933 27.6983C80.8799 27.307 77.4631 25.8179 76.7796 25.1798C75.6899 24.1631 74.7118 22.9926 73.8278 21.772C73.8118 21.832 73.7958 21.8921 73.7811 21.9534C73.6468 21.7713 73.5131 21.5853 73.3795 21.3953C71.8976 23.019 69.3414 25.0769 69.3414 25.0769C69.3414 25.0769 69.3414 25.0763 69.3414 25.0756V25.0769L54.4755 36.8523L54.392 36.919C53.9964 37.2251 53.5281 37.4521 53.0049 37.5695L32.3898 42.169C32.3671 42.1756 32.3444 42.1782 32.321 42.1828C32.0444 42.2389 31.7571 42.171 31.4785 42.002C30.1101 42.6942 28.536 43.2411 27.5125 43.5592C26.9973 43.7195 26.5944 43.8713 25.7265 44.1121C25.7265 44.1121 25.7265 44.1121 25.7259 44.1121C25.5548 44.1866 25.3818 44.2625 25.2128 44.3364C24.856 44.4921 24.5206 44.6386 24.278 44.7428C24.1985 44.7772 24.1184 44.8055 24.0389 44.8306C23.2992 45.0668 22.5924 44.9289 22.2636 44.7455C22.2235 44.7231 22.1875 44.7006 22.1594 44.6775C22.1146 44.6353 22.0739 44.5891 22.0371 44.5403C22.0371 44.5396 22.0358 44.539 22.0358 44.5383C21.7899 44.2137 21.7184 43.7564 22.0044 43.3804C22.0044 43.3804 27.7663 34.6222 29.2275 34.4018C29.4186 34.3728 29.879 34.4665 30.4402 34.6493C30.8551 34.7852 31.3248 34.9699 31.7838 35.191L43.2422 32.6402L24.9275 26.5648C24.7718 26.5067 24.6355 26.415 24.5192 26.2942L21.073 26.7284C21.073 26.7284 18.2174 27.6369 17.2166 27.8995C17.1504 27.9167 17.0843 27.9259 17.0195 27.9272C16.7222 27.9345 16.4522 27.788 16.2939 27.5993C16.0748 27.2886 16.1402 26.9013 16.4422 26.5278L16.4449 26.5298ZM25.5335 19.3195C25.5555 19.3921 25.5709 19.4693 25.5782 19.5491C25.5702 19.4686 25.5555 19.3921 25.5335 19.3195ZM22.0492 24.1558C21.9683 24.2231 21.8841 24.297 21.7979 24.3769C21.8848 24.297 21.9683 24.2231 22.0492 24.1558Z" fill="url(#paint2_linear_552_23592)"/>
<defs>
<linearGradient id="paint0_linear_552_23592" x1="64.3688" y1="13.1019" x2="-5.9188" y2="47.2969" gradientUnits="userSpaceOnUse">
<stop offset="0.13" stop-color="white"/>
<stop offset="1" stop-color="white" stop-opacity="0.2"/>
</linearGradient>
<linearGradient id="paint1_linear_552_23592" x1="16.3008" y1="27.6048" x2="16.291" y2="27.6048" gradientUnits="userSpaceOnUse">
<stop stop-color="white"/>
<stop offset="1" stop-color="white" stop-opacity="0"/>
</linearGradient>
<linearGradient id="paint2_linear_552_23592" x1="82.9618" y1="3.1888" x2="48.77" y2="35.3543" gradientUnits="userSpaceOnUse">
<stop stop-color="white"/>
<stop offset="1" stop-color="#272E8D"/>
</linearGradient>
</defs>
</svg>
